<svg width="20" height="20" viewBox="0 0 20 20" fill="none" xmlns="http://www.w3.org/2000/svg">
<path d="M3.33073 16.6673C2.8724 16.6673 2.48003 16.5041 2.15365 16.1777C1.82726 15.8513 1.66406 15.459 1.66406 15.0007V5.00065C1.66406 4.54232 1.82726 4.14996 2.15365 3.82357C2.48003 3.49718 2.8724 3.33398 3.33073 3.33398H8.33073L9.9974 5.00065H16.6641C17.1224 5.00065 17.5148 5.16385 17.8411 5.49023C18.1675 5.81662 18.3307 6.20898 18.3307 6.66732V15.0007C18.3307 15.459 18.1675 15.8513 17.8411 16.1777C17.5148 16.5041 17.1224 16.6673 16.6641 16.6673H3.33073ZM3.33073 15.0007H16.6641V6.66732H9.3099L7.64323 5.00065H3.33073V15.0007Z" fill="#24D5FC"/>
</svg>
