<svg width="20" height="20" viewBox="0 0 20 20" fill="none" xmlns="http://www.w3.org/2000/svg">
<path d="M6.66927 14.9993H13.3359V13.3327H6.66927V14.9993ZM6.66927 11.666H13.3359V9.99935H6.66927V11.666ZM5.0026 18.3327C4.54427 18.3327 4.15191 18.1695 3.82552 17.8431C3.49913 17.5167 3.33594 17.1243 3.33594 16.666V3.33268C3.33594 2.87435 3.49913 2.48199 3.82552 2.1556C4.15191 1.82921 4.54427 1.66602 5.0026 1.66602H11.6693L16.6693 6.66602V16.666C16.6693 17.1243 16.5061 17.5167 16.1797 17.8431C15.8533 18.1695 15.4609 18.3327 15.0026 18.3327H5.0026ZM10.8359 7.49935V3.33268H5.0026V16.666H15.0026V7.49935H10.8359Z" fill="#24D5FC"/>
</svg>
