<svg width="20" height="20" viewBox="0 0 20 20" fill="none" xmlns="http://www.w3.org/2000/svg">
<path d="M13.3307 6.66667V4.16667H6.66406V6.66667H4.9974V2.5H14.9974V6.66667H13.3307ZM14.9974 10.4167C15.2335 10.4167 15.4314 10.3368 15.5911 10.1771C15.7509 10.0174 15.8307 9.81944 15.8307 9.58333C15.8307 9.34722 15.7509 9.14931 15.5911 8.98958C15.4314 8.82986 15.2335 8.75 14.9974 8.75C14.7613 8.75 14.5634 8.82986 14.4036 8.98958C14.2439 9.14931 14.1641 9.34722 14.1641 9.58333C14.1641 9.81944 14.2439 10.0174 14.4036 10.1771C14.5634 10.3368 14.7613 10.4167 14.9974 10.4167ZM13.3307 15.8333V12.5H6.66406V15.8333H13.3307ZM14.9974 17.5H4.9974V14.1667H1.66406V9.16667C1.66406 8.45833 1.90712 7.86458 2.39323 7.38542C2.87934 6.90625 3.46962 6.66667 4.16406 6.66667H15.8307C16.5391 6.66667 17.1328 6.90625 17.612 7.38542C18.0911 7.86458 18.3307 8.45833 18.3307 9.16667V14.1667H14.9974V17.5ZM16.6641 12.5V9.16667C16.6641 8.93056 16.5842 8.73264 16.4245 8.57292C16.2648 8.41319 16.0668 8.33333 15.8307 8.33333H4.16406C3.92795 8.33333 3.73003 8.41319 3.57031 8.57292C3.41059 8.73264 3.33073 8.93056 3.33073 9.16667V12.5H4.9974V10.8333H14.9974V12.5H16.6641Z" fill="#24D5FC"/>
</svg>
