<svg xmlns="http://www.w3.org/2000/svg" id="svg953" width="154.086" height="271.039" viewBox="0 0 154.086 271.039"><defs id="defs906"><linearGradient id="linear-gradient" x1="-169.208" x2="-152.693" y1="437.808" y2="373.67" gradientTransform="scale(1.49908 .66708)" gradientUnits="userSpaceOnUse"><stop id="stop871" offset=".403" stop-color="#3c8ecd"/><stop id="stop873" offset=".994" stop-color="#82cef2"/></linearGradient><linearGradient id="linear-gradient-2" x1="-2019.643" x2="-2005.572" y1="443.327" y2="388.678" gradientTransform="scale(1.49906 .66708)" gradientUnits="userSpaceOnUse"><stop id="stop876" offset=".403" stop-color="#c18dbe"/><stop id="stop878" offset="1" stop-color="#9db4dd"/></linearGradient><linearGradient id="linear-gradient-3" x1="-2199.194" x2="-2179.861" y1="431.34" y2="356.069" gradientTransform="scale(1.49916 .66704)" gradientUnits="userSpaceOnUse"><stop id="stop881" offset=".403" stop-color="#454494"/><stop id="stop883" offset="1" stop-color="#76a1d6"/></linearGradient><linearGradient id="linear-gradient-4" x1="-122.302" x2="-110.342" y1="447.998" y2="401.432" gradientTransform="scale(1.49892 .66715)" gradientUnits="userSpaceOnUse"><stop id="stop886" offset=".403" stop-color="#56bdc1"/><stop id="stop888" offset=".994" stop-color="#82cef2"/></linearGradient><linearGradient id="linear-gradient-5" x1="101.756" x2="92.483" y1="561.481" y2="506.922" gradientTransform="scale(1.84195 .5429)" gradientUnits="userSpaceOnUse"><stop id="stop891" offset=".006" stop-color="#13287a"/><stop id="stop893" offset="1" stop-color="#1a3d8e"/></linearGradient><linearGradient id="linear-gradient-6" x1="102.198" x2="117.133" y1="360.909" y2="411.604" gradientTransform="scale(1.40037 .7141)" gradientUnits="userSpaceOnUse"><stop id="stop896" offset="0" stop-color="#466bb3"/><stop id="stop898" offset=".727" stop-color="#3c3079"/></linearGradient><linearGradient id="linear-gradient-7" x1="183.306" x2="195.218" y1="374.013" y2="341.317" gradientTransform="scale(1.25832 .7947)" gradientUnits="userSpaceOnUse"><stop id="stop901" offset=".192" stop-color="#1972a0"/><stop id="stop903" offset="1" stop-color="#3b9fd9"/></linearGradient><filter id="bg_btn" width="153" height="345" x="0" y="0" filterUnits="userSpaceOnUse"><feOffset id="feOffset860" dy="1"/><feGaussianBlur id="feGaussianBlur862" result="blur" stdDeviation="1.5"/><feFlood id="feFlood864" flood-opacity=".2"/><feComposite id="feComposite866" in2="blur" operator="in" result="result1"/><feComposite id="feComposite868" in="SourceGraphic" in2="result1"/></filter><style id="style858">.cls-5{fill:#7d7995;font-size:16px;font-family:&quot;Lato&quot;,sans-serif}</style></defs><g id="g909" style="filter:url(#bg_btn)" transform="scale(1.0071 .78562)"><path id="bg_btn-2" d="M24 0h120v336H24a24 24 0 0 1-24-24V24A24 24 0 0 1 24 0" data-name="bg_btn" style="fill:#efefef" transform="translate(4.5 3.5)"/></g><path id="Line_36" d="M21.543 170.626h119.032" data-name="Line 36" style="fill:none;stroke:#bcbcbc;stroke-width:1.03091"/><text id="Our_providers:-8" x="24.564" y="115.643" class="cls-5" data-name="Our providers:" style="font-style:normal;font-variant:normal;font-weight:700;font-stretch:normal;font-size:15.3333px;font-family:Lato,sans-serif;-inkscape-font-specification:&quot;Lato, sans-serif, Bold&quot;;font-variant-ligatures:normal;font-variant-caps:normal;font-variant-numeric:normal;font-variant-east-asian:normal;fill:#143176;fill-opacity:1"><tspan id="tspan1399" x="24.564" y="115.643" style="font-size:15.3333px;fill:#24d5fd;fill-opacity:1">Resilient</tspan><tspan id="tspan1401" x="24.564" y="134.81" style="font-size:15.3333px;fill:#24d5fd;fill-opacity:1">syslog</tspan><tspan id="tspan2" x="24.564" y="153.977" style="font-size:15.3333px;fill:#24d5fd;fill-opacity:1">architectures</tspan></text><text id="Our_providers:-8-7" x="24.894" y="195.896" class="cls-5" data-name="Our providers:" style="font-style:normal;font-variant:normal;font-weight:400;font-stretch:normal;font-size:16px;font-family:Lato,sans-serif;-inkscape-font-specification:&quot;Lato, sans-serif, Normal&quot;;font-variant-ligatures:normal;font-variant-caps:normal;font-variant-numeric:normal;font-variant-east-asian:normal;fill:#7d7995"><tspan id="tspan9" x="24.894" y="195.896" style="font-style:normal;font-variant:normal;font-weight:400;font-stretch:normal;font-size:15px;font-family:Lato,sans-serif;-inkscape-font-specification:&quot;Lato, sans-serif, Normal&quot;;font-variant-ligatures:normal;font-variant-caps:normal;font-variant-numeric:normal;font-variant-east-asian:normal">WEBINAR with</tspan><tspan id="tspan4" x="24.894" y="215.896" style="font-style:normal;font-variant:normal;font-weight:400;font-stretch:normal;font-size:13.3333px;font-family:Lato,sans-serif;-inkscape-font-specification:&quot;Lato, sans-serif, Normal&quot;;font-variant-ligatures:normal;font-variant-caps:normal;font-variant-numeric:normal;font-variant-east-asian:normal">Balázs Scheidler</tspan></text><text id="Our_providers:-8-7-1" x="27.61" y="250.417" class="cls-5" data-name="Our providers:" style="font-style:normal;font-variant:normal;font-weight:400;font-stretch:normal;font-size:15px;font-family:Lato,sans-serif;-inkscape-font-specification:&quot;Lato, sans-serif, Normal&quot;;font-variant-ligatures:normal;font-variant-caps:normal;font-variant-numeric:normal;font-variant-east-asian:normal;fill:#143176;fill-opacity:1"><tspan id="tspan1389" x="27.61" y="250.417">WATCH NOW!</tspan></text><g id="Group_2144" data-name="Group 2144" transform="translate(35.77 16.466)scale(.25655)"><path id="Path_4415" fill="#2f3772" d="m160.111 16.63 19.657 34.05a13.24 13.24 0 0 1 0 13.327L123.6 161.359l-19.657-34.05a13.24 13.24 0 0 1 0-13.327z" data-name="Path 4415" transform="translate(3.141 -16.63)"/><path id="Path_4416" fill="#2f3772" d="m165.591 26.12 19.657 34.05a13.24 13.24 0 0 1 0 13.327L156.4 123.405a13.24 13.24 0 0 0 0 13.327l62.9 108.946h-39.316a13.35 13.35 0 0 1-11.528-6.663l-59.037-102.283a13.24 13.24 0 0 1 0-13.327z" data-name="Path 4416" transform="translate(34.177 37.115)"/><path id="Path_4417" fill="#ccc" d="m139.979 35.62 90.289 156.389h-39.314a13.35 13.35 0 0 1-11.528-6.663L120.389 83.063a13.24 13.24 0 0 1 0-13.327z" data-name="Path 4417" transform="translate(96.304 90.918)"/><path id="Path_4418" fill="#ccc" d="m176.562 35.62 19.657 34.05a13.24 13.24 0 0 1 0 13.327l-59.037 102.282a13.35 13.35 0 0 1-11.528 6.663H86.34Z" data-name="Path 4418" transform="translate(-86.34 90.918)"/><path id="Path_4419" fill="#ccc" d="m151.007 45.11 19.657 34.05a13.24 13.24 0 0 1 0 13.327l-22.522 39.047a13.35 13.35 0 0 1-11.528 6.663H97.3Z" data-name="Path 4419" transform="translate(-24.269 144.663)"/></g></svg>